<svg width="20" height="21" fill="none" xmlns="http://www.w3.org/2000/svg"><g clip-path="url(#clip0)" fill="#000"><path d="M17.9 9.75275H9.39999v1.20415H17.9l-2.1 2.1072.9.9031 3.1-3.1107a.75385.75385 0 00.15-.4515.75394.75394 0 00-.15-.45156l-3.1-3.11067-.9.9031 2.1 2.00688zM8.10001 19.7872v-6.2213a.65325.65325 0 00-.18859-.4129.649.649 0 00-.41141-.1892h-4.4c.00515.3177.13324.621.35717.8457.22394.2247.52618.3532.84283.3584h2.5v5.0172h-3.7a1.78352 1.78352 0 01-.69825-.0955 1.78816 1.78816 0 01-.6074-.3585 1.79672 1.79672 0 01-.4224-.5661 1.80115 1.80115 0 01-.17195-.6857V3.43111c-.0082-.4643.16515-.91337.48291-1.25098.31777-.33761.75466-.53691 1.21709-.55521h3.9v5.0172h-2.4c-.31665.00517-.61889.13369-.84283.3584-.22393.22471-.35202.52799-.35717.84573h4.4a.649.649 0 00.41141-.18924.65321.65321 0 00.18859-.41283V.92252a.86316.86316 0 00-.2628-.40311.85865.85865 0 00-.4372-.19896h-4.4a2.99067 2.99067 0 00-1.1559.1903 2.99845 2.99845 0 00-.99518.61994 3.01009 3.01009 0 00-.68272.9551A3.01893 3.01893 0 000 3.23043V17.1782a2.90918 2.90918 0 00.15748 1.177 2.9012 2.9012 0 00.6144 1.0149c.27237.2922.60205.5246.9683.6828a2.8824 2.8824 0 001.15982.236h4.6a.4989.4989 0 00.22215-.005.50079.50079 0 00.19805-.1011.5018.5018 0 00.13483-.1773.50291.50291 0 00.04497-.2183z"/></g><defs><clipPath id="clip0"><path fill="#fff" transform="translate(0 .32044)" d="M0 0h20v20.0688H0z"/></clipPath></defs></svg>